<svg width="28" height="28" viewBox="0 0 28 28" fill="none" xmlns="http://www.w3.org/2000/svg">
<path d="M14.0007 7.5835C14.7742 7.5835 15.5161 7.89079 16.063 8.43777C16.61 8.98475 16.9173 9.72662 16.9173 10.5002C16.9173 10.8832 16.8419 11.2625 16.6953 11.6163C16.5487 11.9702 16.3339 12.2917 16.063 12.5626C15.7922 12.8334 15.4707 13.0482 15.1168 13.1948C14.7629 13.3414 14.3837 13.4168 14.0007 13.4168C13.2271 13.4168 12.4852 13.1095 11.9383 12.5626C11.3913 12.0156 11.084 11.2737 11.084 10.5002C11.084 9.72662 11.3913 8.98475 11.9383 8.43777C12.4852 7.89079 13.2271 7.5835 14.0007 7.5835ZM14.0007 2.3335C16.1666 2.3335 18.2438 3.19391 19.7754 4.72546C21.3069 6.257 22.1673 8.33423 22.1673 10.5002C22.1673 16.6252 14.0007 25.6668 14.0007 25.6668C14.0007 25.6668 5.83398 16.6252 5.83398 10.5002C5.83398 8.33423 6.6944 6.257 8.22595 4.72546C9.75749 3.19391 11.8347 2.3335 14.0007 2.3335ZM14.0007 4.27794C12.4536 4.27794 10.4279 5.12842 9.33398 6.22238C8.24002 7.31635 7.77843 8.95307 7.77843 10.5002C7.77843 11.6668 8.16732 15.1163 14.0006 22.9446C19.834 15.1163 20.2229 11.6668 20.2229 10.5002C20.2229 8.95307 19.7613 7.31635 18.6673 6.22238C17.5734 5.12842 15.5477 4.27794 14.0007 4.27794Z" fill="#B78AF7"/>
</svg>
